<svg xmlns="http://www.w3.org/2000/svg" xmlns:xlink="http://www.w3.org/1999/xlink" width="500" zoomAndPan="magnify" viewBox="0 0 375 374.999991" height="500" preserveAspectRatio="xMidYMid meet" version="1.0"><defs><clipPath id="id1"><path d="M 97 85.660156 L 277.746094 85.660156 L 277.746094 266.410156 L 97 266.410156 Z M 97 85.660156 " clip-rule="nonzero"/></clipPath></defs><path fill="#ffffff" d="M 275.589844 176.035156 C 275.589844 224.753906 236.101562 264.265625 187.382812 264.265625 C 138.652344 264.265625 99.15625 224.753906 99.15625 176.035156 C 99.15625 127.3125 138.652344 87.808594 187.382812 87.808594 C 236.101562 87.808594 275.589844 127.3125 275.589844 176.035156 Z M 275.589844 176.035156 " fill-opacity="1" fill-rule="nonzero"/><path fill="#eaf4f9" d="M 187.382812 87.808594 C 236.101562 87.808594 275.589844 127.3125 275.589844 176.035156 C 275.589844 224.753906 236.101562 264.265625 187.382812 264.265625 " fill-opacity="1" fill-rule="nonzero"/><g clip-path="url(#id1)"><path stroke-linecap="round" transform="matrix(1.414319, 0, 0, 1.414319, 88.370199, 77.034415)" fill="none" stroke-linejoin="round" d="M 132.374398 69.99887 C 132.374398 104.445657 104.454051 132.382575 70.007264 132.382575 C 35.552191 132.382575 7.62632 104.445657 7.62632 69.99887 C 7.62632 35.549321 35.552191 7.617926 70.007264 7.617926 C 104.454051 7.617926 132.374398 35.549321 132.374398 69.99887 Z M 132.374398 69.99887 " stroke="#33363a" stroke-width="3" stroke-opacity="1" stroke-miterlimit="10"/></g><path fill="#3e77bf" d="M 187.371094 106.449219 C 148.933594 106.449219 117.765625 137.730469 117.765625 176.335938 C 117.765625 207.207031 137.707031 233.398438 165.378906 242.640625 C 168.859375 243.285156 170.125 241.125 170.125 239.273438 C 170.125 237.613281 170.066406 233.21875 170.027344 227.390625 C 150.664062 231.617188 146.578125 218.019531 146.578125 218.019531 C 143.417969 209.949219 138.851562 207.804688 138.851562 207.804688 C 132.53125 203.464844 139.328125 203.550781 139.328125 203.550781 C 146.3125 204.042969 149.988281 210.753906 149.988281 210.753906 C 156.203125 221.433594 166.285156 218.347656 170.25 216.558594 C 170.878906 212.042969 172.683594 208.960938 174.671875 207.21875 C 159.214844 205.449219 142.96875 199.460938 142.96875 172.683594 C 142.96875 165.050781 145.675781 158.816406 150.125 153.921875 C 149.40625 152.15625 147.023438 145.054688 150.808594 135.433594 C 150.808594 135.433594 156.652344 133.554688 169.949219 142.597656 C 175.507812 141.046875 181.457031 140.273438 187.378906 140.242188 C 193.289062 140.273438 199.242188 141.046875 204.804688 142.597656 C 218.085938 133.554688 223.925781 135.433594 223.925781 135.433594 C 227.726562 145.054688 225.332031 152.15625 224.613281 153.921875 C 229.078125 158.816406 231.773438 165.050781 231.773438 172.683594 C 231.773438 199.523438 215.496094 205.433594 199.988281 207.160156 C 202.488281 209.320312 204.714844 213.585938 204.714844 220.109375 C 204.714844 229.449219 204.628906 236.980469 204.628906 239.277344 C 204.628906 241.144531 205.882812 243.320312 209.410156 242.632812 C 237.050781 233.375 256.972656 207.199219 256.972656 176.335938 C 256.976562 137.730469 225.8125 106.449219 187.371094 106.449219 Z M 187.371094 106.449219 " fill-opacity="1" fill-rule="nonzero"/><path fill="#3e77bf" d="M 187.371094 106.449219 C 148.933594 106.449219 117.765625 137.730469 117.765625 176.335938 C 117.765625 207.207031 137.707031 233.398438 165.378906 242.640625 C 168.859375 243.285156 170.125 241.125 170.125 239.273438 C 170.125 237.613281 170.066406 233.21875 170.027344 227.390625 C 150.664062 231.617188 146.578125 218.019531 146.578125 218.019531 C 143.417969 209.949219 138.851562 207.804688 138.851562 207.804688 C 132.53125 203.464844 139.328125 203.550781 139.328125 203.550781 C 146.3125 204.042969 149.988281 210.753906 149.988281 210.753906 C 156.203125 221.433594 166.285156 218.347656 170.25 216.558594 C 170.878906 212.042969 172.683594 208.960938 174.671875 207.21875 C 159.214844 205.449219 142.96875 199.460938 142.96875 172.683594 C 142.96875 165.050781 145.675781 158.816406 150.125 153.921875 C 149.40625 152.15625 147.023438 145.054688 150.808594 135.433594 C 150.808594 135.433594 156.652344 133.554688 169.949219 142.597656 C 175.507812 141.046875 181.457031 140.273438 187.378906 140.242188 C 193.289062 140.273438 199.242188 141.046875 204.804688 142.597656 C 218.085938 133.554688 223.925781 135.433594 223.925781 135.433594 C 227.726562 145.054688 225.332031 152.15625 224.613281 153.921875 C 229.078125 158.816406 231.773438 165.050781 231.773438 172.683594 C 231.773438 199.523438 215.496094 205.433594 199.988281 207.160156 C 202.488281 209.320312 204.714844 213.585938 204.714844 220.109375 C 204.714844 229.449219 204.628906 236.980469 204.628906 239.277344 C 204.628906 241.144531 205.882812 243.320312 209.410156 242.632812 C 237.050781 233.375 256.972656 207.199219 256.972656 176.335938 C 256.976562 137.730469 225.8125 106.449219 187.371094 106.449219 Z M 187.371094 106.449219 " fill-opacity="1" fill-rule="nonzero"/><path fill="#569fef" d="M 187.371094 106.449219 C 148.933594 106.449219 117.765625 137.730469 117.765625 176.335938 C 117.765625 207.207031 137.707031 233.398438 165.378906 242.640625 C 168.859375 243.285156 170.125 241.125 170.125 239.273438 C 170.125 237.613281 170.066406 233.21875 170.027344 227.390625 C 150.664062 231.617188 146.578125 218.019531 146.578125 218.019531 C 143.417969 209.949219 138.851562 207.804688 138.851562 207.804688 C 132.53125 203.464844 139.328125 203.550781 139.328125 203.550781 C 146.3125 204.042969 149.988281 210.753906 149.988281 210.753906 C 156.203125 221.433594 166.285156 218.347656 170.25 216.558594 C 170.878906 212.042969 172.683594 208.960938 174.671875 207.21875 C 159.214844 205.449219 142.96875 199.460938 142.96875 172.683594 C 142.96875 165.050781 145.675781 158.816406 150.125 153.921875 C 149.40625 152.15625 147.023438 145.054688 150.808594 135.433594 C 150.808594 135.433594 156.652344 133.554688 169.949219 142.597656 C 175.507812 141.046875 181.457031 140.273438 187.378906 140.242188 L 187.378906 106.449219 C 187.375 106.449219 187.371094 106.449219 187.371094 106.449219 Z M 187.371094 106.449219 " fill-opacity="1" fill-rule="nonzero"/><path fill="#6ca9ea" d="M 153.234375 214.851562 C 152.792969 214.175781 151.949219 213.035156 150.730469 211.886719 C 151.523438 213.0625 152.363281 214.042969 153.234375 214.851562 Z M 153.234375 214.851562 " fill-opacity="1" fill-rule="nonzero"/><path fill="#33363a" d="M 187.371094 110.691406 C 223.414062 110.691406 252.734375 140.136719 252.734375 176.335938 C 252.734375 204.347656 235.148438 229.152344 208.878906 238.332031 C 208.882812 237.582031 208.886719 236.601562 208.898438 235.421875 C 208.921875 231.816406 208.960938 226.367188 208.960938 220.105469 C 208.960938 216.511719 208.339844 213.183594 207.1875 210.339844 C 212.816406 209.179688 219.171875 207.007812 224.429688 202.585938 C 232.121094 196.125 236.019531 186.0625 236.019531 172.679688 C 236.019531 165.214844 233.785156 158.601562 229.375 152.980469 C 230.367188 149.191406 231.199219 142.296875 227.875 133.875 C 227.410156 132.695312 226.4375 131.78125 225.226562 131.394531 C 224.804688 131.257812 223.867188 131.027344 222.378906 131.027344 C 218.882812 131.027344 212.925781 132.273438 204.042969 138.011719 C 198.742188 136.707031 193.152344 136.03125 187.355469 136 C 181.59375 136.03125 176.007812 136.707031 170.710938 138.011719 C 161.820312 132.273438 155.855469 131.027344 152.359375 131.027344 C 150.867188 131.027344 149.933594 131.257812 149.507812 131.394531 C 148.300781 131.78125 147.324219 132.695312 146.859375 133.878906 C 143.542969 142.304688 144.375 149.195312 145.363281 152.984375 C 140.953125 158.613281 138.722656 165.226562 138.722656 172.679688 C 138.722656 180.6875 138.722656 203.957031 167.53125 210.332031 C 167.132812 211.3125 166.796875 212.355469 166.53125 213.441406 C 165.324219 213.820312 163.839844 214.148438 162.28125 214.148438 C 158.644531 214.148438 155.824219 212.34375 153.660156 208.636719 C 153.132812 207.710938 148.449219 199.941406 139.625 199.316406 C 139.539062 199.308594 139.457031 199.304688 139.375 199.304688 C 139.359375 199.304688 139.3125 199.304688 139.296875 199.304688 C 135.550781 199.304688 132.941406 200.789062 132.140625 203.371094 C 130.867188 207.46875 135.0625 210.355469 136.445312 211.296875 C 136.683594 211.460938 136.75 211.519531 136.996094 211.621094 C 137.433594 211.882812 140.324219 213.75 142.582031 219.46875 C 143.210938 221.292969 147.671875 232.445312 163.007812 232.445312 C 163.921875 232.445312 164.859375 232.40625 165.816406 232.320312 C 165.824219 233.300781 165.832031 234.203125 165.84375 235.023438 C 165.855469 236.378906 165.867188 237.496094 165.871094 238.324219 C 139.59375 229.152344 122 204.351562 122 176.332031 C 122.007812 140.136719 151.328125 110.691406 187.371094 110.691406 M 187.371094 106.449219 C 148.933594 106.449219 117.765625 137.730469 117.765625 176.335938 C 117.765625 207.207031 137.707031 233.398438 165.378906 242.640625 C 165.808594 242.71875 166.207031 242.757812 166.570312 242.757812 C 169.152344 242.757812 170.125 240.898438 170.125 239.273438 C 170.125 237.613281 170.066406 233.21875 170.027344 227.390625 C 167.425781 227.957031 165.09375 228.203125 163.015625 228.203125 C 149.636719 228.203125 146.578125 218.019531 146.578125 218.019531 C 143.417969 209.949219 138.851562 207.804688 138.851562 207.804688 C 132.773438 203.628906 138.832031 203.550781 139.300781 203.550781 L 139.332031 203.550781 C 146.316406 204.042969 149.988281 210.753906 149.988281 210.753906 C 153.460938 216.71875 158.140625 218.390625 162.285156 218.390625 C 165.558594 218.390625 168.5 217.347656 170.253906 216.558594 C 170.882812 212.042969 172.683594 208.960938 174.671875 207.214844 C 159.214844 205.449219 142.96875 199.460938 142.96875 172.679688 C 142.96875 165.050781 145.675781 158.8125 150.128906 153.921875 C 149.410156 152.152344 147.023438 145.050781 150.808594 135.433594 C 150.808594 135.433594 151.3125 135.273438 152.363281 135.273438 C 154.882812 135.273438 160.558594 136.210938 169.953125 142.597656 C 175.507812 141.046875 181.460938 140.273438 187.382812 140.242188 C 193.289062 140.273438 199.246094 141.046875 204.808594 142.597656 C 214.191406 136.210938 219.859375 135.273438 222.378906 135.273438 C 223.425781 135.273438 223.929688 135.433594 223.929688 135.433594 C 227.730469 145.050781 225.335938 152.152344 224.617188 153.921875 C 229.082031 158.8125 231.777344 165.046875 231.777344 172.679688 C 231.777344 199.523438 215.5 205.429688 199.988281 207.160156 C 202.488281 209.316406 204.714844 213.585938 204.714844 220.105469 C 204.714844 229.445312 204.628906 236.980469 204.628906 239.273438 C 204.628906 240.902344 205.582031 242.761719 208.15625 242.761719 C 208.539062 242.761719 208.957031 242.71875 209.414062 242.632812 C 237.054688 233.371094 256.976562 207.199219 256.976562 176.335938 C 256.976562 137.730469 225.8125 106.449219 187.371094 106.449219 Z M 187.371094 106.449219 " fill-opacity="1" fill-rule="nonzero"/><path fill="#33363a" d="M 187.371094 110.691406 C 223.414062 110.691406 252.734375 140.136719 252.734375 176.335938 C 252.734375 204.347656 235.148438 229.152344 208.878906 238.332031 C 208.882812 237.582031 208.886719 236.601562 208.898438 235.421875 C 208.921875 231.816406 208.960938 226.367188 208.960938 220.105469 C 208.960938 216.511719 208.339844 213.183594 207.1875 210.339844 C 212.816406 209.179688 219.171875 207.007812 224.429688 202.585938 C 232.121094 196.125 236.019531 186.0625 236.019531 172.679688 C 236.019531 165.214844 233.785156 158.601562 229.375 152.980469 C 230.367188 149.191406 231.199219 142.296875 227.875 133.875 C 227.410156 132.695312 226.4375 131.78125 225.226562 131.394531 C 224.804688 131.257812 223.867188 131.027344 222.378906 131.027344 C 218.882812 131.027344 212.925781 132.273438 204.042969 138.011719 C 198.742188 136.707031 193.152344 136.03125 187.355469 136 C 181.59375 136.03125 176.007812 136.707031 170.710938 138.011719 C 161.820312 132.273438 155.855469 131.027344 152.359375 131.027344 C 150.867188 131.027344 149.933594 131.257812 149.507812 131.394531 C 148.300781 131.78125 147.324219 132.695312 146.859375 133.878906 C 143.542969 142.304688 144.375 149.195312 145.363281 152.984375 C 140.953125 158.613281 138.722656 165.226562 138.722656 172.679688 C 138.722656 180.6875 138.722656 203.957031 167.53125 210.332031 C 167.132812 211.3125 166.796875 212.355469 166.53125 213.441406 C 165.324219 213.820312 163.839844 214.148438 162.28125 214.148438 C 158.644531 214.148438 155.824219 212.34375 153.660156 208.636719 C 153.132812 207.710938 148.449219 199.941406 139.625 199.316406 C 139.539062 199.308594 139.457031 199.304688 139.375 199.304688 C 139.359375 199.304688 139.3125 199.304688 139.296875 199.304688 C 135.550781 199.304688 132.941406 200.789062 132.140625 203.371094 C 130.867188 207.46875 135.0625 210.355469 136.445312 211.296875 C 136.683594 211.460938 136.75 211.519531 136.996094 211.621094 C 137.433594 211.882812 140.324219 213.75 142.582031 219.46875 C 143.210938 221.292969 147.671875 232.445312 163.007812 232.445312 C 163.921875 232.445312 164.859375 232.40625 165.816406 232.320312 C 165.824219 233.300781 165.832031 234.203125 165.84375 235.023438 C 165.855469 236.378906 165.867188 237.496094 165.871094 238.324219 C 139.59375 229.152344 122 204.351562 122 176.332031 C 122.007812 140.136719 151.328125 110.691406 187.371094 110.691406 M 187.371094 106.449219 C 148.933594 106.449219 117.765625 137.730469 117.765625 176.335938 C 117.765625 207.207031 137.707031 233.398438 165.378906 242.640625 C 165.808594 242.71875 166.207031 242.757812 166.570312 242.757812 C 169.152344 242.757812 170.125 240.898438 170.125 239.273438 C 170.125 237.613281 170.066406 233.21875 170.027344 227.390625 C 167.425781 227.957031 165.09375 228.203125 163.015625 228.203125 C 149.636719 228.203125 146.578125 218.019531 146.578125 218.019531 C 143.417969 209.949219 138.851562 207.804688 138.851562 207.804688 C 132.773438 203.628906 138.832031 203.550781 139.300781 203.550781 L 139.332031 203.550781 C 146.316406 204.042969 149.988281 210.753906 149.988281 210.753906 C 153.460938 216.71875 158.140625 218.390625 162.285156 218.390625 C 165.558594 218.390625 168.5 217.347656 170.253906 216.558594 C 170.882812 212.042969 172.683594 208.960938 174.671875 207.214844 C 159.214844 205.449219 142.96875 199.460938 142.96875 172.679688 C 142.96875 165.050781 145.675781 158.8125 150.128906 153.921875 C 149.410156 152.152344 147.023438 145.050781 150.808594 135.433594 C 150.808594 135.433594 151.3125 135.273438 152.363281 135.273438 C 154.882812 135.273438 160.558594 136.210938 169.953125 142.597656 C 175.507812 141.046875 181.460938 140.273438 187.382812 140.242188 C 193.289062 140.273438 199.246094 141.046875 204.808594 142.597656 C 214.191406 136.210938 219.859375 135.273438 222.378906 135.273438 C 223.425781 135.273438 223.929688 135.433594 223.929688 135.433594 C 227.730469 145.050781 225.335938 152.152344 224.617188 153.921875 C 229.082031 158.8125 231.777344 165.046875 231.777344 172.679688 C 231.777344 199.523438 215.5 205.429688 199.988281 207.160156 C 202.488281 209.316406 204.714844 213.585938 204.714844 220.105469 C 204.714844 229.445312 204.628906 236.980469 204.628906 239.273438 C 204.628906 240.902344 205.582031 242.761719 208.15625 242.761719 C 208.539062 242.761719 208.957031 242.71875 209.414062 242.632812 C 237.054688 233.371094 256.976562 207.199219 256.976562 176.335938 C 256.976562 137.730469 225.8125 106.449219 187.371094 106.449219 Z M 187.371094 106.449219 " fill-opacity="1" fill-rule="nonzero"/><path fill="#33363a" d="M 150.730469 211.890625 C 151.523438 213.0625 152.363281 214.042969 153.234375 214.851562 C 152.792969 214.175781 151.949219 213.035156 150.730469 211.890625 Z M 150.730469 211.890625 " fill-opacity="1" fill-rule="nonzero"/></svg>